<!DOCTYPE svg PUBLIC "-//W3C//DTD SVG 1.1//EN" "http://www.w3.org/Graphics/SVG/1.1/DTD/svg11.dtd">
<!-- Uploaded to: SVG Repo, www.svgrepo.com, Transformed by: SVG Repo Mixer Tools -->
<svg fill="#1d3d59" height="800px" width="800px" version="1.1" id="Layer_1" xmlns="http://www.w3.org/2000/svg" xmlns:xlink="http://www.w3.org/1999/xlink" viewBox="0 0 512 512" xml:space="preserve" stroke="#1d3d59">
<g id="SVGRepo_bgCarrier" stroke-width="0"/>
<g id="SVGRepo_tracerCarrier" stroke-linecap="round" stroke-linejoin="round"/>
<g id="SVGRepo_iconCarrier"> <g> <g> <path d="M321.273,256C444.783,188.36,396.569,0,256,0C115.445,0,67.332,188.423,190.727,256 c-42.308,23.17-71.062,68.121-71.062,119.665V494.14c0,9.864,7.997,17.86,17.86,17.86h236.949c9.864,0,17.86-7.997,17.86-17.86 V375.665C392.335,326.314,365.594,280.272,321.273,256z M154.831,137.855c-0.007-0.508-0.038-1.011-0.038-1.521 c-0.002-55.479,45.133-100.614,100.612-100.614c55.479,0,100.614,45.135,100.614,100.614c0,0.117-0.008,0.232-0.008,0.35 l-31.124-31.382c-3.353-3.382-7.918-5.284-12.681-5.284H199.797c-4.763,0-9.328,1.903-12.681,5.284L154.831,137.855z M164.319,179.014l42.917-43.275h97.526l42.101,42.45c-15.914,34.636-50.911,58.76-91.459,58.76 C215.178,236.949,180.406,213.21,164.319,179.014z M238.735,476.279h-83.349V375.665c0-23.442,8.08-45.019,21.573-62.143 l61.776,65.18V476.279z M203.066,289.771c15.259-9.333,33.18-14.719,52.338-14.719c19.473,0,37.661,5.577,53.08,15.195L256,345.62 L203.066,289.771z M356.614,476.279h-82.158v-97.575l61.126-64.493c13.168,17.013,21.032,38.326,21.032,61.456V476.279z"/> </g> </g> <g> <g> <path d="M323.87,402.456h-17.86c-9.864,0-17.86,7.997-17.86,17.86c0,9.864,7.997,17.86,17.86,17.86h17.86 c9.864,0,17.86-7.997,17.86-17.86C341.73,410.453,333.733,402.456,323.87,402.456z"/> </g> </g> </g>
</svg>